Coordinates
version=1
nRows=10
nColumns=40
inDegrees=yes

Units are S.I. units (second, meters, Newtons, ...)
If the header above contains a line with 'inDegrees', this indicates whether rotational values are in degrees (yes) or radians (no).

endheader
time	pelvis_tilt	pelvis_list	pelvis_rotation	pelvis_tx	pelvis_ty	pelvis_tz	hip_flexion_r	hip_adduction_r	hip_rotation_r	knee_angle_r	knee_angle_r_beta	ankle_angle_r	subtalar_angle_r	mtp_angle_r	hip_flexion_l	hip_adduction_l	hip_rotation_l	knee_angle_l	knee_angle_l_beta	ankle_angle_l	subtalar_angle_l	mtp_angle_l	lumbar_extension	lumbar_bending	lumbar_rotation	arm_flex_r	arm_add_r	arm_rot_r	elbow_flex_r	pro_sup_r	wrist_flex_r	wrist_dev_r	arm_flex_l	arm_add_l	arm_rot_l	elbow_flex_l	pro_sup_l	wrist_flex_l	wrist_dev_l
      0.30000000	     23.10900767	      1.79387093	      1.61301964	      0.53628168	      0.98265724	     -0.35517828	    -17.57732168	      1.86915413	     -5.34676867	     15.51791473	      0.27083871	     -5.37747088	      0.00000000	      0.00000000	    -11.57180829	     -1.25475032	      2.90423100	     56.51697609	      0.98640732	    -16.01888570	      0.00000000	      0.00000000	    -35.98024178	      0.10195923	     -2.53687611	      1.67415603	    -17.59289818	     19.34027837	     49.56749641	     77.11892300	      0.00000000	      0.00000000	      0.54317355	    -25.73949369	     20.58163980	     49.45999229	     69.62860689	      0.00000000	      0.00000000
      0.30400000	     23.11441024	      1.75250733	      1.50082343	      0.54113681	      0.98324118	     -0.35480375	    -17.96700220	      1.89693445	     -5.41019541	     15.43551955	      0.26940064	     -5.35925826	      0.00000000	      0.00000000	    -10.96943267	     -1.18688963	      2.93937714	     56.27751298	      0.98222790	    -15.87437137	      0.00000000	      0.00000000	    -36.02866188	      0.06865690	     -2.39388725	      1.88546650	    -17.50197544	     19.30301446	     49.71239441	     77.12081237	      0.00000000	      0.00000000	      0.44726550	    -25.80902646	     20.57658165	     49.40957930	     69.66274902	      0.00000000	      0.00000000
      0.30800000	     23.48837432	      1.82648720	      1.52149112	      0.54796091	      0.98437151	     -0.35431735	    -19.53521538	      2.00073606	     -5.17055681	     13.95175003	      0.24350397	     -5.89659092	      0.00000000	      0.00000000	    -11.09574401	     -1.12475912	      2.97679705	     55.66399310	      0.97151995	    -14.97131918	      0.00000000	      0.00000000	    -36.25001816	     -0.04504484	     -2.37716788	      1.67425727	    -17.35040360	     19.09033126	     49.98916817	     77.33888238	      0.00000000	      0.00000000	      0.04281275	    -25.87157579	     20.20112199	     49.50541798	     71.02495804	      0.00000000	      0.00000000
      0.31200000	     23.38711925	      1.86851450	      1.40038860	      0.55334108	      0.98469640	     -0.35397651	    -19.93064772	      1.95350921	     -5.36099156	     13.65723905	      0.23836379	     -5.79864858	      0.00000000	      0.00000000	    -10.38904556	     -1.02059959	      2.86563160	     55.39525962	      0.96682967	    -14.45738315	      0.00000000	      0.00000000	    -36.12092753	     -0.18630944	     -2.23872353	      1.76440477	    -17.26651342	     19.07385487	     50.10848617	     77.34281706	      0.00000000	      0.00000000	     -0.10210452	    -25.88818486	     20.13997769	     49.48521857	     71.02768311	      0.00000000	      0.00000000
      0.31600000	     23.29073252	      1.91046479	      1.33655326	      0.55873722	      0.98497037	     -0.35376683	    -20.36183555	      1.93506130	     -5.39273166	     13.28964483	      0.23194806	     -5.78558566	      0.00000000	      0.00000000	     -9.72218542	     -0.90973275	      2.86974601	     55.10376954	      0.96174221	    -13.64955022	      0.00000000	      0.00000000	    -36.00730299	     -0.28674684	     -2.15908523	      1.82148403	    -17.19690037	     18.98543164	     50.31440068	     77.32125842	      0.00000000	      0.00000000	     -0.31083554	    -25.86719416	     20.02474760	     49.56681684	     70.96323914	      0.00000000	      0.00000000
      0.32000000	     23.37832033	      1.87134840	      1.46539728	      0.56444098	      0.98544562	     -0.35316630	    -21.21092313	      2.15585173	     -5.53535124	     12.51878407	      0.21849400	     -6.00051105	      0.00000000	      0.00000000	     -9.24640015	     -1.08553350	      2.80699383	     54.78263185	      0.95613730	    -12.21818826	      0.00000000	      0.00000000	    -36.04757704	     -0.26081158	     -2.20502645	      1.86461643	    -17.02027249	     18.93567626	     50.48979857	     77.31967911	      0.00000000	      0.00000000	     -0.59348508	    -26.02591464	     19.88784702	     49.78246678	     70.78707253	      0.00000000	      0.00000000
      0.32400000	     23.25747647	      1.90399564	      1.36179628	      0.56983983	      0.98558486	     -0.35282119	    -21.55327601	      2.12452998	     -5.71329927	     12.28379003	      0.21439258	     -5.92280237	      0.00000000	      0.00000000	     -8.56323813	     -0.99399024	      2.66573424	     54.35113469	      0.94860625	    -11.73181860	      0.00000000	      0.00000000	    -35.89846793	     -0.37322122	     -2.08420102	      1.92117271	    -16.94501501	     18.94235517	     50.67911579	     77.31521493	      0.00000000	      0.00000000	     -0.77531292	    -26.11430610	     19.79566257	     49.79119048	     70.83816775	      0.00000000	      0.00000000
      0.32800000	     23.22979938	      1.86667299	      1.25391419	      0.57441413	      0.98581049	     -0.35245185	    -21.85634801	      2.15825360	     -5.89865444	     12.17267453	      0.21245325	     -5.84493003	      0.00000000	      0.00000000	     -7.89774481	     -0.96953454	      2.60324800	     53.97668181	      0.94207082	    -11.49866235	      0.00000000	      0.00000000	    -35.94926053	     -0.42188127	     -1.94742653	      2.16898675	    -16.88487676	     18.93328801	     50.84805944	     77.31247441	      0.00000000	      0.00000000	     -0.80933266	    -26.13900121	     19.78676144	     49.81096546	     70.84445422	      0.00000000	      0.00000000
      0.33200000	     23.09144129	      2.01318118	      1.22660772	      0.58038039	      0.98584427	     -0.35251888	    -22.39233542	      2.03618170	     -6.06793180	     11.61166011	      0.20266170	     -5.71048940	      0.00000000	      0.00000000	     -7.38139896	     -0.61997553	      2.84287672	     53.37507181	      0.93157074	    -11.46486794	      0.00000000	      0.00000000	    -35.72236422	     -0.59002544	     -1.92377719	      2.06410904	    -16.82009381	     18.84795636	     51.07445559	     77.24640205	      0.00000000	      0.00000000	     -1.11971199	    -26.09399373	     19.48637803	     49.89443791	     70.93236711	      0.00000000	      0.00000000
      0.33600000	     23.11926134	      2.01353059	      1.22167975	      0.58567505	      0.98603093	     -0.35218829	    -22.96480446	      2.09840877	     -6.25434957	     11.20954739	      0.19564351	     -5.80478699	      0.00000000	      0.00000000	     -6.91961217	     -0.59982532	      2.79207453	     52.79825963	      0.92150347	    -10.83602015	      0.00000000	      0.00000000	    -35.74688739	     -0.63157400	     -1.90871476	      2.16316194	    -16.79093047	     18.86058477	     51.33622520	     77.19566289	      0.00000000	      0.00000000	     -1.32520392	    -26.18386458	     19.49918330	     50.04441415	     70.87354518	      0.00000000	      0.00000000
